<?xml version="1.0" encoding="UTF-8" standalone="no"?>
<!-- Created with Inkscape (http://www.inkscape.org/) -->

<svg
   xmlns:dc="http://purl.org/dc/elements/1.1/"
   xmlns:cc="http://creativecommons.org/ns#"
   xmlns:rdf="http://www.w3.org/1999/02/22-rdf-syntax-ns#"
   xmlns:svg="http://www.w3.org/2000/svg"
   xmlns="http://www.w3.org/2000/svg"
   xmlns:sodipodi="http://sodipodi.sourceforge.net/DTD/sodipodi-0.dtd"
   xmlns:inkscape="http://www.inkscape.org/namespaces/inkscape"
   width="210mm"
   height="297mm"
   viewBox="0 0 210 297"
   version="1.1"
   id="svg8"
   inkscape:version="0.92.4 (5da689c313, 2019-01-14)"
   sodipodi:docname="Logo Large.svg">
  <defs
     id="defs2" />
  <sodipodi:namedview
     id="base"
     pagecolor="#ffffff"
     bordercolor="#666666"
     borderopacity="1.0"
     inkscape:pageopacity="0.0"
     inkscape:pageshadow="2"
     inkscape:zoom="0.7"
     inkscape:cx="246.48489"
     inkscape:cy="564.53631"
     inkscape:document-units="mm"
     inkscape:current-layer="layer1"
     showgrid="false"
     inkscape:window-width="2560"
     inkscape:window-height="1017"
     inkscape:window-x="1272"
     inkscape:window-y="-8"
     inkscape:window-maximized="1" />
  <metadata
     id="metadata5">
    <rdf:RDF>
      <cc:Work
         rdf:about="">
        <dc:format>image/svg+xml</dc:format>
        <dc:type
           rdf:resource="http://purl.org/dc/dcmitype/StillImage" />
        <dc:title></dc:title>
      </cc:Work>
    </rdf:RDF>
  </metadata>
  <g
     inkscape:label="Layer 1"
     inkscape:groupmode="layer"
     id="layer1">
    <path
       style="fill:#2e7f18;fill-opacity:1;stroke:none;stroke-width:0.26499999;stroke-miterlimit:4;stroke-dasharray:none;stroke-dashoffset:0;stroke-opacity:1"
       d="m 0,0 v 59.922808 l 59.922808,0 V 0 Z m 33.021314,14.180229 c 0.227857,0.006 0.4444,0.0729 0.627867,0.20671 0.587145,0.42979 0.609823,1.38564 0.05478,2.131651 -0.555636,0.74737 -1.480762,1.00369 -2.066539,0.57309 -0.587928,-0.43109 -0.611944,-1.385641 -0.05633,-2.128551 0.382254,-0.51362 0.938935,-0.79588 1.440222,-0.7829 z m 3.667993,0.0362 c 0.40341,-0.0182 0.781796,0.10302 1.060916,0.37413 0.63637,0.62079 0.512093,1.788181 -0.276984,2.607081 -0.789036,0.8196 -1.943865,0.98136 -2.581238,0.36174 -0.637924,-0.61823 -0.514663,-1.785711 0.275434,-2.605011 0.443055,-0.46097 1.003202,-0.7146 1.521872,-0.73794 z m -7.141167,0.28422 c 0.169833,-0.002 0.335351,0.0342 0.487309,0.11317 0.608002,0.31335 0.762453,1.19215 0.344681,1.959571 -0.414798,0.76541 -1.245703,1.13094 -1.853634,0.81752 -0.608518,-0.31573 -0.76204,-1.19267 -0.346231,-1.958531 0.312809,-0.57557 0.858377,-0.92588 1.367875,-0.93173 z m 11.009664,0.91571 c 0.436343,-0.0194 0.845627,0.11188 1.147217,0.40514 0.688949,0.669971 0.556062,1.933611 -0.297656,2.821531 -0.854461,0.88724 -2.105599,1.06304 -2.79518,0.39377 -0.688253,-0.67004 -0.554784,-1.93511 0.297656,-2.82153 0.480785,-0.499681 1.086954,-0.774011 1.647963,-0.798911 z m 4.332552,1.937341 c 0.626644,-0.0277 1.214337,0.16146 1.647963,0.58291 0.987565,0.96219 0.796358,2.77576 -0.429948,4.049369 -1.225495,1.27432 -3.021611,1.52616 -4.011642,0.56379 -0.988351,-0.96355 -0.798007,-2.775889 0.427879,-4.049879 0.690121,-0.71686 1.560063,-1.11058 2.365748,-1.14619 z m -13.651881,1.56632 c 2.308593,-0.0306 4.618853,0.63513 6.243032,1.58543 1.815912,1.064889 4.489312,3.605539 3.632853,6.270419 -0.904007,2.80998 -3.738546,4.6463 -6.038908,6.1805 -1.233421,0.8217 -3.510542,1.20911 -4.626075,2.2164 -4.1114,3.71433 -6.124599,10.56389 -11.742435,12.26799 -4.026843,1.22094 -7.603613,-3.63239 -5.895248,-7.45743 1.235879,-2.76626 4.653193,-4.07985 6.653343,-6.25078 2.346205,-2.54848 2.75334,-8.14819 4.931996,-11.42514 1.610786,-2.423469 4.225041,-3.352679 6.841442,-3.387389 z m 0.922944,2.575549 c -7.640228,1.54155 -5.653135,5.69972 -4.82813,6.98252 0.804243,-1.57793 2.497389,-3.90777 3.637505,-5.05602 -0.729949,1.19487 -1.775868,3.21846 -2.311488,4.87153 0.936173,-1.2497 2.14352,-1.34559 3.368786,-0.87436 0.693891,-1.08702 0.947571,-2.90631 0.133327,-5.92367 z m -1.424205,6.34328 c -1.478261,0.0282 -2.167779,1.39945 -2.402435,2.01332 1.138155,-0.14138 2.277705,-0.0922 3.403925,0.14314 -1.108927,0.0302 -2.177161,0.27627 -3.198254,0.6904 0.698172,1.05138 2.60391,2.93997 5.781559,-0.99374 -1.526667,-1.4034 -2.697837,-1.87006 -3.584795,-1.85312 z"
       id="rect4793"
       inkscape:connector-curvature="0"
       sodipodi:nodetypes="ccccccccccccccccccccccccccccccccccccccccccccccccccccccccc" />
  </g>
</svg>
